<!--?xml version="1.0" standalone="no"?-->
              <svg id="sw-js-blob-svg" viewBox="0 0 100 100" xmlns="http://www.w3.org/2000/svg" version="1.1">
                    <defs> 
                        <linearGradient id="sw-gradient" x1="0" x2="1" y1="1" y2="0">
                            <stop id="stop1" stop-color="rgba(194.736, 180.511, 173.778, 1)" offset="0%"></stop>
                            <stop id="stop2" stop-color="rgba(60.654, 251, 31, 1)" offset="100%"></stop>
                        </linearGradient>
                    </defs>
                <path fill="url(#sw-gradient)" d="M26.1,-29.1C33.2,-25.2,37.8,-16.3,39.8,-6.8C41.7,2.7,40.9,12.9,36.5,21.5C32.1,30.1,24.1,37.1,15.7,37.9C7.3,38.7,-1.4,33.3,-9.3,28.9C-17.1,24.6,-24.1,21.3,-29.7,15.3C-35.3,9.4,-39.5,0.8,-37.6,-6C-35.6,-12.9,-27.5,-18,-20.2,-21.9C-13,-25.8,-6.5,-28.5,1.5,-30.3C9.5,-32.1,19,-33.1,26.1,-29.1Z" width="100%" height="100%" transform="translate(50 50)" stroke-width="0" style="transition: all 0.3s ease 0s;"></path>
              </svg>