<?xml version="1.0" standalone="no"?>
<svg xmlns:xlink="http://www.w3.org/1999/xlink" id="wave" style="transform:rotate(0deg); transition: 0.3s" viewBox="0 0 1440 490" version="1.1" xmlns="http://www.w3.org/2000/svg"><defs><linearGradient id="sw-gradient-0" x1="0" x2="0" y1="1" y2="0"><stop stop-color="rgba(54.963, 48.489, 46.41, 1)" offset="0%"/><stop stop-color="rgba(196.124, 164.545, 94.74, 1)" offset="100%"/></linearGradient></defs><path style="transform:translate(0, 0px); opacity:1" fill="url(#sw-gradient-0)" d="M0,441L18.5,400.2C36.9,359,74,278,111,269.5C147.7,261,185,327,222,359.3C258.5,392,295,392,332,351.2C369.2,310,406,229,443,220.5C480,212,517,278,554,318.5C590.8,359,628,376,665,375.7C701.5,376,738,359,775,318.5C812.3,278,849,212,886,171.5C923.1,131,960,114,997,147C1033.8,180,1071,261,1108,302.2C1144.6,343,1182,343,1218,310.3C1255.4,278,1292,212,1329,220.5C1366.2,229,1403,310,1440,343C1476.9,376,1514,359,1551,318.5C1587.7,278,1625,212,1662,163.3C1698.5,114,1735,82,1772,89.8C1809.2,98,1846,147,1883,147C1920,147,1957,98,1994,89.8C2030.8,82,2068,114,2105,114.3C2141.5,114,2178,82,2215,114.3C2252.3,147,2289,245,2326,245C2363.1,245,2400,147,2437,163.3C2473.8,180,2511,310,2548,334.8C2584.6,359,2622,278,2640,236.8L2658.5,196L2658.5,490L2640,490C2621.5,490,2585,490,2548,490C2510.8,490,2474,490,2437,490C2400,490,2363,490,2326,490C2289.2,490,2252,490,2215,490C2178.5,490,2142,490,2105,490C2067.7,490,2031,490,1994,490C1956.9,490,1920,490,1883,490C1846.2,490,1809,490,1772,490C1735.4,490,1698,490,1662,490C1624.6,490,1588,490,1551,490C1513.8,490,1477,490,1440,490C1403.1,490,1366,490,1329,490C1292.3,490,1255,490,1218,490C1181.5,490,1145,490,1108,490C1070.8,490,1034,490,997,490C960,490,923,490,886,490C849.2,490,812,490,775,490C738.5,490,702,490,665,490C627.7,490,591,490,554,490C516.9,490,480,490,443,490C406.2,490,369,490,332,490C295.4,490,258,490,222,490C184.6,490,148,490,111,490C73.8,490,37,490,18,490L0,490Z"/></svg>